<svg width="24" height="24" viewBox="0 0 24 24" fill="none" xmlns="http://www.w3.org/2000/svg">
<g clip-path="url(#clip0_2675_29017)">
<path d="M18.3086 12.763C18.3204 11.8431 18.5648 10.9411 19.0189 10.141C19.473 9.34093 20.1221 8.6687 20.9058 8.18688C20.408 7.47583 19.7512 6.89066 18.9876 6.47785C18.224 6.06504 17.3747 5.83597 16.5071 5.80883C14.6563 5.61457 12.8621 6.91628 11.919 6.91628C10.9576 6.91628 9.50557 5.82811 7.94194 5.86029C6.93054 5.89296 5.94485 6.18707 5.08092 6.71395C4.21698 7.24084 3.50426 7.98253 3.01219 8.86676C0.880666 12.5572 2.47059 17.9808 4.51241 20.9639C5.53398 22.4246 6.7279 24.0562 8.29011 23.9984C9.81884 23.9349 10.3898 23.0235 12.2351 23.0235C14.0633 23.0235 14.5989 23.9984 16.1928 23.9616C17.8332 23.9349 18.8668 22.4944 19.8525 21.0198C20.5865 19.979 21.1513 18.8287 21.526 17.6115C20.573 17.2084 19.7597 16.5337 19.1875 15.6715C18.6154 14.8093 18.3097 13.7978 18.3086 12.763Z" fill="#12131A"/>
<path d="M15.2969 3.84712C16.1913 2.77342 16.6319 1.39335 16.5252 0C15.1588 0.14352 13.8965 0.796599 12.9901 1.82911C12.5468 2.33352 12.2074 2.92033 11.9911 3.55601C11.7748 4.19169 11.6859 4.86376 11.7295 5.53381C12.413 5.54084 13.0892 5.3927 13.7071 5.10054C14.325 4.80838 14.8686 4.37982 15.2969 3.84712Z" fill="#12131A"/>
</g>
<defs>
<clipPath id="clip0_2675_29017">
<rect width="24" height="24" fill="white"/>
</clipPath>
</defs>
</svg>
