<svg width="112" height="33" viewBox="0 0 112 33" fill="none" xmlns="http://www.w3.org/2000/svg">
<path fill-rule="evenodd" clip-rule="evenodd" d="M11.4022 32.8359C9.74215 32.8359 8.2131 32.5286 6.81513 31.914C5.41715 31.2994 4.20849 30.4361 3.18914 29.324C2.16978 28.2119 1.38341 26.9242 0.830044 25.4609C0.276688 23.9684 0 22.3588 0 20.6321V19.7103C0 18.0129 0.262122 16.4179 0.786364 14.9254C1.33973 13.4328 2.09697 12.1305 3.05807 11.0185C4.0483 9.90637 5.22785 9.04304 6.59671 8.42842C7.99468 7.78463 9.53827 7.4627 11.2275 7.4627C13.0915 7.4627 14.7224 7.8724 16.1204 8.69181C17.3368 9.36532 18.3416 10.3365 19.1348 11.6053V0H25.2072V32.0457H20.4017V27.1096C20.2686 27.4209 20.123 27.72 19.9648 28.0071C19.062 29.6166 17.8679 30.8311 16.3825 31.6506C14.9263 32.4408 13.2662 32.8359 11.4022 32.8359ZM12.7565 27.6998C13.9506 27.6998 15.0428 27.4364 16.033 26.9096C17.0233 26.3536 17.8096 25.5634 18.3921 24.5391C19.0037 23.4855 19.3095 22.2564 19.3095 20.8516V19.0957C19.3095 17.691 19.0037 16.5204 18.3921 15.5839C17.7805 14.6181 16.9796 13.8865 15.9893 13.3889C14.9991 12.8622 13.9215 12.5988 12.7565 12.5988C11.4459 12.5988 10.2809 12.9207 9.2616 13.5645C8.27135 14.1791 7.48499 15.0571 6.90251 16.1984C6.34914 17.3398 6.07247 18.6713 6.07247 20.1931C6.07247 21.7149 6.36371 23.0466 6.94619 24.1879C7.52869 25.3 8.31505 26.1633 9.30528 26.7779C10.3246 27.3924 11.475 27.6998 12.7565 27.6998Z" fill="#12131A"/>
<path d="M61.6538 32.1659V8.32923H66.4593V14.2033C66.6001 13.5918 66.7748 13.0239 66.9836 12.4996C67.6243 10.8607 68.5709 9.63156 69.8232 8.81209C71.1047 7.99268 72.692 7.58298 74.5851 7.58298H74.8472C77.6722 7.58298 79.8129 8.50484 81.2691 10.3485C82.7254 12.163 83.4535 14.8847 83.4535 18.5136V32.1659H77.381V17.9868C77.381 16.5236 76.9587 15.3383 76.1141 14.4311C75.2986 13.5238 74.1628 13.0702 72.7065 13.0702C71.2212 13.0702 70.0125 13.5385 69.0805 14.475C68.1777 15.3822 67.7263 16.6113 67.7263 18.1624V32.1659H61.6538Z" fill="#12131A"/>
<path fill-rule="evenodd" clip-rule="evenodd" d="M100.598 33C98.5591 33 96.7679 32.6488 95.2243 31.9464C93.7099 31.244 92.443 30.3076 91.4236 29.137C90.4334 27.9371 89.6761 26.6055 89.1519 25.1422C88.6568 23.679 88.4092 22.1864 88.4092 20.6646V19.8306C88.4092 18.2502 88.6568 16.7284 89.1519 15.2651C89.6761 13.7726 90.4334 12.4556 91.4236 11.3143C92.443 10.1437 93.6953 9.2218 95.1806 8.5487C96.666 7.84631 98.3843 7.49514 100.336 7.49514C102.899 7.49514 105.039 8.06584 106.758 9.20718C108.505 10.3193 109.816 11.7972 110.689 13.6409C111.563 15.4554 112 17.4161 112 19.5232V21.7181H94.1673C94.2712 22.6379 94.4779 23.4866 94.7875 24.2643C95.2534 25.4056 95.967 26.3129 96.9281 26.9859C97.8892 27.6298 99.1124 27.9517 100.598 27.9517C102.083 27.9517 103.292 27.659 104.224 27.0737C105.156 26.4592 105.753 25.7129 106.015 24.8349H111.607C111.257 26.4738 110.587 27.9078 109.597 29.137C108.607 30.3661 107.34 31.3173 105.797 31.9904C104.282 32.6635 102.549 33 100.598 33ZM94.7875 16.1431C94.5594 16.7016 94.3872 17.3162 94.2707 17.9868H106.199C106.092 17.2279 105.914 16.5402 105.665 15.9236C105.229 14.8408 104.559 14.0067 103.656 13.4214C102.782 12.8361 101.675 12.5435 100.336 12.5435C98.996 12.5435 97.8601 12.8507 96.9281 13.4653C95.9961 14.0799 95.2826 14.9725 94.7875 16.1431Z" fill="#12131A"/>
<path d="M56.9052 19.6397C56.9052 27.0184 50.9524 33 43.6093 33C36.2662 33 30.3133 27.0184 30.3133 19.6397C30.3133 12.261 36.2662 6.27937 43.6093 6.27937C47.3931 6.27937 50.8077 7.86757 53.2289 10.4167L43.6093 20.0829L38.6402 15.0898L35.2825 18.4637L43.6093 26.8309L55.8843 14.4965C56.542 16.0795 56.9052 17.817 56.9052 19.6397Z" fill="#12131A"/>
<path d="M56.9052 19.6397C56.9052 27.0184 50.9524 33 43.6093 33C36.2662 33 30.3133 27.0184 30.3133 19.6397C30.3133 12.261 36.2662 6.27937 43.6093 6.27937C47.3931 6.27937 50.8077 7.86757 53.2289 10.4167L43.6093 20.0829L38.6402 15.0898L35.2825 18.4637L43.6093 26.8309L55.8843 14.4965C56.542 16.0795 56.9052 17.817 56.9052 19.6397Z" fill="#12131A"/>
</svg>
